<?xml version="1.0" encoding="UTF-8"?>
<svg version="1.1" xmlns="http://www.w3.org/2000/svg" width="32" height="12">
<path d="M0 0 C10.56 0 21.12 0 32 0 C32 3.96 32 7.92 32 12 C21.44 12 10.88 12 0 12 C0 8.04 0 4.08 0 0 Z " fill="#D7D3D3" transform="translate(0,0)"/>
<path d="M0 0 C10.56 0 21.12 0 32 0 C32 3.96 32 7.92 32 12 C31.01 11.67 30.02 11.34 29 11 C29.66 11 30.32 11 31 11 C31 10.01 31 9.02 31 8 C30.01 8 29.02 8 28 8 C27.608125 7.195625 27.21625 6.39125 26.8125 5.5625 C25.30665922 2.86354798 25.30665922 2.86354798 23.03125 2.4453125 C21.02883367 2.21263736 19.01345559 2.09902241 17 2 C17 4.64 17 7.28 17 10 C16.34 10 15.68 10 15 10 C15 7.36 15 4.72 15 2 C14.34 2 13.68 2 13 2 C13 3.65 13 5.3 13 7 C12.34 7 11.68 7 11 7 C11 5.35 11 3.7 11 2 C7.37 2 3.74 2 0 2 C0 1.34 0 0.68 0 0 Z " fill="#F8F8F8" transform="translate(0,0)"/>
<path d="M0 0 C1.27875 -0.061875 2.5575 -0.12375 3.875 -0.1875 C4.95394531 -0.23970703 4.95394531 -0.23970703 6.0546875 -0.29296875 C6.69664063 -0.19628906 7.33859375 -0.09960938 8 0 C10.1519437 3.22791555 10.20086443 4.28400809 10 8 C9.79375 7.401875 9.5875 6.80375 9.375 6.1875 C7.49073918 3.18981233 5.18867916 2.38638224 2 1 C2 1.66 2 2.32 2 3 C2.66 3 3.32 3 4 3 C4 3.66 4 4.32 4 5 C3.34 5 2.68 5 2 5 C2 5.66 2 6.32 2 7 C3.32 6.67 4.64 6.34 6 6 C6 6.66 6 7.32 6 8 C4.02 8 2.04 8 0 8 C0 5.36 0 2.72 0 0 Z " fill="#888888" transform="translate(17,2)"/>
</svg>
